<svg version="1.1" xmlns="http://www.w3.org/2000/svg" x="0" y="0" viewBox="0 0 98.7 59.3" xml:space="preserve"><path d="M69.1 22.9c0-2.2-.7-2.2-1.8-2.8s-8.2-4.6-8.2-4.6V5.2l-9.8 5.4-9.8-5.4v10.4s-7.7 4.1-8.9 4.8-1.1 1.4-1.1 2.3v13.7c0 1.4.7 1.7 1.2 2.1s8.8 5.1 8.8 5.1V54l9.8-5.4 9.8 5.4V43.6s7.6-4.2 8.8-4.9 1.2-1.3 1.2-2.7V22.9zm-10-4.2l7.4 4v9.5L51.9 24l7.2-4v-1.3zm-2 11.1l-7.4 3.9-7.7-4.1 7.4-4.1 7.7 4.3zM41.8 9.1l4.9 2.7-4.9 2.7V9.1zm-9.6 13.5L56.8 9.3v9.3L32.2 32v-9.4zm7.3 16.7v1.3l-7.4-4.1V35l7.4-4.1 7.6 4.3-7.6 4.1zm17.3 10.8L52 47.3l4.8-2.4v5.2zm9.8-13.3L41.8 50.1v-9.4l18-9.4 6.8 4v1.5z"/></svg>