<svg version="1.1" xmlns="http://www.w3.org/2000/svg" x="0" y="0" viewBox="0 0 67.9 67.9" xml:space="preserve"><path d="M57.9 9.9c-13.3-13.3-34.7-13.3-48 0s-13.3 34.7 0 48 34.7 13.3 48 0c6.4-6.4 9.9-15 9.9-24 .1-9-3.5-17.6-9.9-24zm-24 56.8C15.8 66.7 1.2 52 1.2 33.9S15.9 1.2 34 1.2c18.1 0 32.7 14.7 32.7 32.8.1 18-14.4 32.6-32.3 32.8-.2-.1-.3-.1-.5-.1z"/><path d="M33.9 2.5C16.6 2.5 2.5 16.6 2.5 33.9s14.1 31.4 31.4 31.4 31.4-14.1 31.4-31.4c0-17.3-14-31.4-31.4-31.4zm-4.6 1.8h2.5l2.2 5.9 2.3-5.9h2.5v8.3h-1.7V6.7L35 12.5h-1.8L31 6.7v5.8h-1.7V4.3zM8.5 17.8l4-4.8c.8-1 2-1.8 3.1-.9.4.3.7.7.9 1.1.1.4.1.8 0 1.2.8-.6 1.9-.5 2.7.2 1 1 .9 2.1-.1 3.3L14.8 23l-6.3-5.2zM33.9 54c-11.1 0-20.1-9-20.1-20.1 0-11.1 9-20.1 20.1-20.1 11.1 0 20.1 9 20.1 20.1S45 54 33.9 54zm18.7-30.7l-1.5-1.9 3-4.4-4.9 2-1.5-1.9 5.2-6.7 1.3 1.6-3.3 4.2 5-2.1 1.4 1.7-3.1 4.4 4.8-2.3 1.3 1.6-7.7 3.8z"/><path d="M15.2 33.9H34V15.2c-10.4 0-18.8 8.4-18.8 18.7z"/><path d="M33.9 52.7c10.4 0 18.8-8.4 18.8-18.8H33.9v18.8z"/><path d="M14.7 14.3c-.4-.3-.9-.3-1.3 0l-2.5 2.9 1.5 1.3 2.4-2.9c.4-.4.3-1-.1-1.3.1 0 0 0 0 0z"/><path d="M17.7 17.6c.4-.4.3-1.1-.1-1.5-.4-.4-1.1-.3-1.5.1l-2.6 3 1.6 1.3 2.6-2.9z"/></svg>