<svg version="1.1" xmlns="http://www.w3.org/2000/svg" x="0" y="0" viewBox="0 0 237.2 136.2" xml:space="preserve"><path d="M174 122.6l-.5 1.6h4l-.5 1.7h-4l-.5 1.6h5.1l-.5 1.7h-7.4l2.6-8.4h7.4l-.5 1.7H174zm-7.7-.1H164l-.7 2.3h2.1c1 0 1.6-.3 1.8-1.1v-.1c.3-.8 0-1.1-.9-1.1zm3.4 1.3l-.1.2c-.4 1.2-1.2 1.9-2.6 2.2l1.5 3.1H166l-1.3-2.9h-1.9l-.9 2.9h-2.4l2.6-8.4h4.8c2.4 0 3.3 1.2 2.8 2.9zm35.7-1.3h-2.3l-.7 2.3h2.1c1 0 1.5-.3 1.8-1.1v-.1c.3-.8 0-1.1-.9-1.1zm3.4 1.3l-.1.2c-.4 1.2-1.2 1.9-2.6 2.2l1.5 3.1h-2.5l-1.3-2.9h-1.9l-.9 2.9h-2.4l2.6-8.4h4.8c2.4 0 3.3 1.2 2.8 2.9zm24.7-1.3h-2.3l-.7 2.3h2.1c1 0 1.6-.3 1.8-1.1v-.1c.2-.8-.1-1.1-.9-1.1zm3.3 1.3l-.1.2c-.4 1.2-1.2 1.9-2.6 2.2l1.5 3.1h-2.5l-1.3-2.9h-1.9l-.9 2.9h-2.4l2.6-8.4h4.8c2.4 0 3.3 1.2 2.8 2.9zm-9.8-1.2l.5-1.7h-7.4l-2.6 8.4h7.4l.5-1.7h-5.1l.5-1.6h4l.5-1.7h-4l.5-1.6h5.2zm-41.7-.1h-2.1l-.8 2.6h2c1 0 1.6-.3 1.8-1.1l.1-.2c.3-1 0-1.3-1-1.3zm3.4 1.4l-.1.3c-.5 1.7-1.7 2.5-4 2.5h-2.7l-.8 2.6h-2.4l2.6-8.4h4.4c2.7 0 3.5 1.3 3 3zm29.5-1.3l.5-1.7h-8.3l-.5 1.7h3.1l-2 6.6h2.4l2-6.6h2.8zm-21.9 1.9c.4-1.3-.2-2.1-1.7-2.1-1.4 0-2.1.6-2.5 1.8l-.4 1.3c-.4 1.3.2 2.1 1.7 2.1 1.4 0 2.1-.6 2.5-1.8l.4-1.3zm1.9 1.6c-.7 2.4-2.3 3.4-5.2 3.4-2.7 0-4.3-1.5-3.4-4.4l.3-1c.7-2.4 2.3-3.4 5.2-3.4 2.7 0 4.3 1.5 3.4 4.4l-.3 1z"/><path d="M154.6 121.8l-.6 2c-1.2 4-3.1 5.4-4.2 5.4-.9 0-1.2-.6-1.2-2 0-4.1 2.7-9 4.8-9 1-.1 1.9 1.4 1.2 3.6zm5.1-9c0-.2 0-.2-.1-.2h-4c-.1 0-.2.1-.2.2s.1.1.1.1h1.8l-2.2 7.1c-.1-1.3-.9-2.3-2.2-2.3-3.1 0-6.4 3.9-6.4 7.6 0 2.9 1.6 4.2 3.1 4.2 1.3 0 2.6-1 3.6-3-.4 2.1.5 3 1.8 3 1 0 2-.7 3.4-4.1.1-.1 0-.2-.1-.2s-.2 0-.2.1c-1.3 3-2 3.6-2.5 3.6s-.7-.3-.2-1.9l4.3-14.2zm-22.1 14c0-2.1 1.1-6.1 2.7-7.8.5-.5 1.1-.9 1.8-.9 1 0 1.8.6 1.8 2.4 0 2.1-1.1 6.1-2.7 7.8-.5.5-1.1.9-1.8.9-1.1 0-1.8-.6-1.8-2.4zm8.3-4.5c0-2.7-1.9-4.6-3.9-4.6-3.4 0-6.4 3.6-6.4 7.2 0 2.7 1.9 4.6 3.9 4.6 3.5.1 6.4-3.5 6.4-7.2zm-16.6-3.3c.5-.5 1.1-.9 1.8-.9 1 0 1.8.6 1.8 2.4 0 2.1-1.1 6.1-2.7 7.8-.5.5-1.1.9-1.8.9-1 0-1.8-.6-1.8-2.4 0-2.1 1.1-6.1 2.7-7.8zm-.8 10.6c3.4 0 6.4-3.6 6.4-7.2 0-2.7-1.9-4.6-3.9-4.6-3.4 0-6.4 3.6-6.4 7.2 0 2.7 1.8 4.6 3.9 4.6zm-5.8-11.8c-.8 0-1.3.6-1.3 1.3 0 .7.6 1.3 1.3 1.3.5 0 .9-.3 1.1-.7 0 .2.1.5.1.7 0 3.9-3.4 8.7-5.6 8.7-.8 0-1.3-.5-.6-2.6l2.6-8.4h-2.4l-1.6 5.2c-1.3 4-3.1 5.9-4.2 5.9-.7 0-1.1-.5-.6-2.3l2.6-8.5c0-.2 0-.2-.1-.2h-4c-.1 0-.2.1-.2.2s.1.1.1.1h1.7l-2.2 7c-.8 2.7.4 4.2 2.3 4.2 1.3 0 2.7-1.4 3.8-3.6-.4 2.2.7 3.6 2.3 3.6 3.4 0 6.5-5.6 6.5-9.3 0-2-.7-2.6-1.6-2.6zm-26.1 7.5c-.1 0-.2 0-.2.1-1.3 3-2 3.6-2.5 3.6s-.7-.3-.2-1.9l4.3-14.2c0-.2 0-.2-.1-.2H94c-.1 0-.2.1-.2.2s.1.1.1.1h1.7l-4 13.1c-.7 2.4.2 3.6 1.8 3.6 1 0 2-.7 3.4-4.1 0-.2 0-.3-.2-.3zm-6.1 0c-.1 0-.2 0-.2.1-1.3 3-2 3.6-2.5 3.6s-.7-.3-.2-1.9l4.3-14.2c0-.2 0-.2-.1-.2h-3.9c-.1 0-.2.1-.2.2s.1.1.1.1h1.7l-4 13.1c-.7 2.4.2 3.6 1.8 3.6 1 0 2-.7 3.4-4.1 0-.2 0-.3-.2-.3zm-10.4 3c-.5.5-1.1.9-1.8.9-1 0-1.8-.6-1.8-2.4 0-2.1 1.1-6.1 2.7-7.8.5-.5 1.1-.9 1.8-.9 1 0 1.8.6 1.8 2.4.1 2.1-1 6.1-2.7 7.8zm.9-10.6c-3.4 0-6.4 3.6-6.4 7.2 0 2.7 1.9 4.6 3.9 4.6 3.4 0 6.4-3.6 6.4-7.2 0-2.7-1.9-4.6-3.9-4.6zm-7.2 11.2h-2.1l4.9-16h2c.1 0 .2-.1.2-.2s-.1-.1-.1-.1h-6.6c-.1 0-.2.1-.2.2s.1.1.1.1h2l-2.4 7.7H65l2.4-7.7h1.9c.1 0 .2-.1.2-.2s-.1-.1-.1-.1h-6.6c-.1 0-.2.1-.2.2s.1.1.1.1h2.1l-4.9 16h-2c-.1 0-.2.1-.2.2s.1.1.1.1h6.6c.1 0 .2-.1.2-.2s-.1-.1-.1-.1h-2l2.4-8h6.6l-2.4 8h-1.9c-.1 0-.2.1-.2.2s.1.1.1.1h6.6c.1 0 .2-.1.2-.2 0 0 0-.1-.1-.1zm24.4-10.7c0 .1 0 .1.1.1h1.7v.2l-2.1 6.8c-.8 2.7.4 4.1 2.2 4.2h.3c1.2-.1 2.5-1.3 3.5-3.4v.1l-1.7 5.6c-.9 3-2 4-3.2 4h-.7c-.9-.1-1.5-.5-1.9-1 .2.1.5.2.8.1.4-.1.7-.3.9-.6.1-.2.2-.5.1-.8-.1-.4-.3-.8-.7-1-.2-.1-.5-.2-.7-.1-.5.1-.9.4-1.1.9-.1.2-.1.5-.1.7.1 1.1 1.2 2 2.7 2.1h.5c2.4 0 4.7-1.2 6-5.3l3.9-12.9h-2.4l-1.1 3.6c0 .1-.3 1.1-.4 1.2-1.4 4.4-3.2 6.2-4.3 6.2h-.2c-.6-.1-.9-.7-.5-2l2.6-8.8c0-.1 0-.1-.1-.2 0-.1-.4-.1-.4-.1h-3.6c0 .3-.1.3-.1.4z"/><path d="M42.2 129.3l1-3.1h2.9l-1 3.1h2.2l2.3-7.5h-2.2l-.9 2.9h-2.9l.9-2.9h-2.2l-2.3 7.5z"/><path d="M34.3 129.3h2.2l1.8-5.9h2.4l.5-1.6h-7.4l-.5 1.6h2.8z"/><path d="M55.5 129.3l.5-1.6h-4.4l.4-1.4h3.6l.5-1.6h-3.6l.4-1.3h4.4l.5-1.6h-6.6l-2.3 7.5z"/><path d="M1.8 124.8h20.5v.5H1.8z"/><path d="M141.4 9.3h95.5v.5h-95.5z"/><path d="M170.2 114.6h-.8V108h.7v1c.3-.7.8-1.1 1.5-1.1 1.4 0 2 1.4 2 2.6 0 .6-.1 1.2-.4 1.7-.3.5-.9.9-1.6.9-.7 0-1.1-.3-1.5-.9v2.4zm1.3-6.1c-.7 0-1.2.6-1.3 1.2v1.1c0 .8.6 1.6 1.3 1.6.4 0 .8-.3 1-.6.2-.4.3-.9.3-1.3 0-.9-.3-2-1.3-2z"/><path d="M178.3 109.9v-.2c0-.9-.4-1.2-1.3-1.2-.6 0-1.2.2-1.4.9l-.7-.1c.1-1 1.2-1.4 2.1-1.4.5 0 1.2.1 1.5.5.4.4.4 1.1.4 1.6v1.9c0 .4 0 .7.1 1h-.8l-.1-.9c-.4.7-1 1-1.7 1-.9 0-1.7-.5-1.7-1.5 0-.6.4-1.1.9-1.4.6-.3 1.3-.3 1.9-.3h.8zm0 .6h-.6c-.8 0-2 .1-2 1.1 0 .6.5.9 1.1.9.9 0 1.6-.8 1.6-1.7v-.3z"/><path d="M181.6 108v1.2c.2-.7.7-1.3 1.5-1.3h.3v.7h-.2c-.6 0-1 .3-1.3.8-.2.4-.2.7-.2 1.1v2.5h-.8v-5h.7z"/><path d="M187.4 113l-.7.1c-1.1 0-1.4-.6-1.4-1.6v-2.9h-.9v-.6h.9v-1.2l.8-.1v1.3h1.1v.6H186v3c0 .6.2.9.8.9h.6v.5z"/><path d="M189.3 108.9c.3-.6.9-1 1.6-1 .6 0 1.1.3 1.4.8.3.4.2 1.1.2 1.6v2.8h-.8V110c0-.3 0-.7-.1-.9-.2-.3-.5-.5-.9-.5s-.8.2-1 .5c-.3.4-.4.8-.4 1.3v2.6h-.8v-5h.7v.9z"/><path d="M198.5 111.6c-.3.9-1.2 1.5-2.1 1.5-1.5 0-2.3-1.2-2.3-2.6 0-1.4.8-2.6 2.3-2.6 1.5 0 2.2 1.3 2.2 2.7H195c0 .4 0 .8.2 1.1.2.5.8.8 1.3.8.6 0 1.1-.4 1.3-1l.7.1zm-.8-1.6c0-.8-.5-1.5-1.3-1.5s-1.4.7-1.4 1.5h2.7z"/><path d="M200.9 108v1.2c.2-.7.7-1.3 1.5-1.3h.3v.7h-.2c-.6 0-1 .3-1.3.8-.2.4-.2.7-.2 1.1v2.5h-.8v-5h.7z"/><path d="M207.9 111.6c-.3.9-1.2 1.5-2.1 1.5-1.5 0-2.3-1.2-2.3-2.6 0-1.4.8-2.6 2.3-2.6 1.5 0 2.2 1.3 2.2 2.7h-3.6c0 .4 0 .8.2 1.1.2.5.8.8 1.3.8.6 0 1.1-.4 1.3-1l.7.1zm-.8-1.6c0-.8-.5-1.5-1.3-1.5s-1.4.7-1.4 1.5h2.7z"/><path d="M212.8 106.2h.8v6.7h-.7v-.9c-.3.6-.8 1-1.6 1-.7 0-1.2-.3-1.5-.8-.3-.5-.5-1.1-.5-1.7 0-1.2.6-2.6 2.1-2.6.6 0 1.1.3 1.4.8v-2.5zm0 3.8c0-.3 0-.7-.3-1-.2-.4-.7-.6-1.1-.6-.4 0-.8.3-1 .6-.2.4-.3.8-.3 1.3 0 .8.2 2 1.3 2 .4 0 .8-.2 1.1-.6.2-.3.3-.6.3-1v-.7z"/><path d="M223.1 113h-.6l-1.1-3.7-1 3.7h-.6l-1.5-5h.8l1.1 3.7 1-3.7h.6l1.1 3.7 1.1-3.7h.6l-1.5 5z"/><path d="M226.7 107.1h-.8v-.9h.8v.9zm-.1 5.9h-.8v-5h.8v5z"/><path d="M231 113l-.7.1c-1.1 0-1.4-.6-1.4-1.6v-2.9h-.9v-.6h.9v-1.2l.8-.1v1.3h1.1v.6h-1.1v3c0 .6.2.9.8.9h.6v.5z"/><path d="M235.4 113v-2.9c0-.3 0-.7-.1-1-.1-.4-.5-.6-.9-.6s-.8.2-1 .5c-.3.4-.4.9-.4 1.4v2.6h-.8v-6.7h.8v2.7c.3-.7.8-1 1.5-1 .5 0 1 .2 1.3.7.3.5.3 1 .3 1.5v2.9h-.7z"/><path d="M21.4 93.5l-8-27.9v27.9H4.8V34.2h8.6v21.9l7.9-21.9h8.5L18.9 59.4l11.7 34.1h-9.2z"/><path d="M49.6 93.5V34.2h20.2v7.6H58.5v16.9h8.2v7.6h-8.2V86h12.1v7.6h-21z"/><path d="M95.8 93.5V68.6l-9-34.4h8.8l2.7 12.5c1.2 5.3 2.3 10.5 2.6 15.1.4-5.4 2-14.1 2.3-15.6l2.4-12h8.5l-9.3 34.3v25.1h-9z"/><path d="M145.6 93.5l-2-16.4h-7.1l-1.9 16.4h-7.9l9.2-59.4h8.7l9.4 59.4h-8.4zm-2.8-23.6l-1.3-10.6c-.4-2.8-1.6-14.5-1.8-16.2-.1 1.7-.2 3.2-.4 6-.5 5.7-.6 6.3-1 10.3l-1.2 10.5h5.7z"/><path d="M190.8 93.5L185 68h-2.1v25.5H174V34.2h10.3c3.6 0 7.5.5 10.2 4.2 1.9 2.5 3.4 5.9 3.4 12.9 0 11.3-3.5 13.4-5.4 14.6l7.5 27.7h-9.2zm-8-33.3h1.4c3.3 0 4.3-1.6 4.3-9.5 0-9-2-9-4.3-9h-1.4v18.5z"/><path d="M221.8 93.5V41.7h-6.6v-7.6h22v7.6h-6.5v51.8h-8.9z"/><path d="M80.4.2h-5.2v18.6h5.2V.2zM69.5 17.6H49.8V.2h-5.2v18.6h24.9v-1.2zm-32.6-5.9l-5.2-.1c-1.2 3.9-6.2 6.2-13.1 6.2-8.5 0-13.5-3-13.5-8.3 0-5.7 7-8.3 13.5-8.3 5.5 0 11.7 2 13.1 6.3l5.2-.1C35.4 2.8 28.4 0 18.6 0 7.3 0 0 3.7 0 9.5 0 17.3 10.1 19 18.6 19c4.8 0 16.2-.7 18.3-7.3m69.9-10.5c-6.5 0-13.5 2.6-13.5 8.3 0 5.3 4.9 8.3 13.5 8.3 8.2 0 13.5-3.3 13.5-8.3-.1-5.7-7-8.3-13.5-8.3m0 17.8c-8.5 0-18.6-1.6-18.6-9.5 0-5.8 7.3-9.5 18.6-9.5s18.6 3.7 18.6 9.5c0 8.6-13 9.5-18.6 9.5"/></svg>