<svg version="1.1" xmlns="http://www.w3.org/2000/svg" x="0" y="0" viewBox="0 0 145 20.6" xml:space="preserve"><path d="M25.5 0l-4.6 6.3h25.2c1.3 0 1.3.5.6 1.3s-1.7 2.3-2.3 3.2c-.3.4-.9 1.3 1 1.3h10.3l3.1-4.2C60.7 5.4 59 0 52.2 0H25.5z"/><path d="M19 20.5l9.3-12.6h11.5c1.3 0 1.3.5.6 1.3L38 12.4c-.3.4-.9 1.3 1 1.3h15.5c-3 4.3-7.8 6.8-13 6.9L19 20.5z"/><path d="M72.3 13.7l-5 6.9H53.9l5-6.9h13.4z"/><path d="M92.7 12.1H60.1L69 0h13.3l-5.1 7h6l5.1-7h13.3l-8.9 12.1z"/><path d="M91.5 13.7l-5 6.9H73.2l5-6.9h13.3z"/><path d="M0 16.4h19.6l-1.1 1.5H0v-1.5z"/><path d="M0 13.7h21.6l-1.1 1.4H0v-1.4z"/><path d="M0 19.1h17.6l-1.1 1.4H0v-1.4z"/><path d="M145 17.9h-19.5l1.1-1.5H145v1.5z"/><path d="M145 20.5h-21.5l1.1-1.4H145v1.4z"/><path d="M128.5 13.7H145v1.4h-17.5l1-1.4z"/><path d="M120 0l-8.9 12.1H97L105.9 0H120z"/><path d="M95.9 13.7l-1.4 2c-1.7 2.3-.2 4.9 5.3 4.9H121l5-6.9H95.9z"/></svg>