<svg version="1.1" xmlns="http://www.w3.org/2000/svg" x="0" y="0" viewBox="0 0 83.4 42.7" xml:space="preserve"><path d="M18.6 11.7h-4.9v19.2h4.9c2.4.1 4.6-.9 6.2-2.7 1.4-2 2.2-4.3 2.1-6.8 0-1-.2-4.6-2.1-7-1.5-1.7-3.8-2.8-6.2-2.7z"/><path d="M34 9.4c.3-.1.6 0 .8.2l14.5 18.5V0H0v42.7h33.5V10c0-.3.2-.5.5-.6zm-7.5 20.2c-1 1.2-2.3 2.1-3.8 2.7-1.3.5-2.7.8-4.2.8h-6.4c-.4 0-.7-.3-.7-.7V10.3c0-.4.3-.7.7-.7h6.4c1.4 0 2.8.3 4.1.8 1.5.6 2.7 1.5 3.7 2.7 2.3 2.9 2.6 6.8 2.6 8.4.2 2.9-.7 5.8-2.4 8.1z"/><path d="M83.4 0h-32v32.6c0 .4-.3.7-.7.7-.2 0-.4-.1-.5-.3L35.7 14.5v28.2h47.7V0zM72.8 29.3c-.4.9-1.1 1.7-1.9 2.3-1.7 1.1-3.8 1.7-5.8 1.6h-7.7c-.4 0-.7-.3-.7-.7V10.3c0-.4.3-.7.7-.7h6.8c1.9-.1 3.8.3 5.4 1.3 1.5 1.2 2.4 3 2.3 4.9.1 1.7-.6 3.4-1.9 4.6l-.1.1.1.1c.4.2.8.5 1.2.8 1.4 1.2 2.2 2.9 2.2 4.7.1 1.1-.1 2.2-.6 3.2z"/><path d="M69.7 15.8c0-2-.8-2.7-1.3-3.2-1.3-.7-2.7-1-4.1-.9H59v7.9h7.1c1.9.1 3.5-1.3 3.7-3.2-.1-.2-.1-.4-.1-.6z"/><path d="M66 21.8h-7.1v9.1h6.2c6.1 0 6.1-3.7 6.1-4.9.1-2.4-2.1-4.2-5.2-4.2z"/></svg>