<svg version="1.1" xmlns="http://www.w3.org/2000/svg" x="0" y="0" viewBox="0 0 20.8 6.2" xml:space="preserve"><path d="M14.7 3.5h2.6v.8h-2.6z"/><path d="M19.5 1.7H19v-.5c0-.4-.3-1.2-1.3-1.2h-4.4c-.9 0-1.1.6-1.2.9-.1.3-.5.9-.5.9l-.5-1c-.3-.6-.8-.8-1.2-.8S9 .2 8.8.7s-.6 1.1-.6 1.1-.2-.4-.4-1C7.5.3 7.1 0 6.5 0H3c-.8 0-1.3.9-1.3 1.2v.5h-.6C.7 1.7 0 2.3 0 3.1s.7 1.4 1.2 1.4h.6v.6c0 .2.3 1.1 1.3 1.1 1.2 0 1.4-1 1.4-1.1v-.6h1.4c.3 0 .6-.2.6-.2s.2.5.5 1.1c.4.6.8.8 1.3.8s.9-.3 1.1-.6c.1-.3.6-1.2.6-1.2s.4.9.6 1.1c.2.3.5.6 1.1.6.7 0 1-.4 1.3-.9.2.4.5.9 1.2.9h3.7c.9 0 1.3-.8 1.3-1.3v-.4h.5c.4 0 1.2-.4 1.2-1.4-.1-.9-.9-1.3-1.4-1.3zm.3 1.4c0 .2-.2.4-.4.4h-1.3v1.2c0 .1 0 .1-.1.2s-.2.2-.3.2h-3.5c-.1 0-.2-.1-.3-.1-.1 0-.1 0-.1-.1V3.1c0-.1.1-.2.2-.3 0 0 .1-.1.2-.1h3.1v-.9h-3.6L12.1 5c0 .1-.1.2-.2.2-.2.1-.4 0-.5-.1l-.1-.1-1.4-2.6-1.2 2.5s0 .1-.1.1c-.1.2-.4.3-.5.2-.1 0-.2-.1-.3-.2L6.3 1.8H3.5v.8h2.2c.2 0 .4.2.4.4s-.2.4-.4.4H3.5v1.3c0 .2-.2.4-.4.4s-.4-.2-.4-.4V3.5H1.3c-.2 0-.4-.2-.4-.4s.2-.4.4-.4h1.4V1.4c0-.1 0-.2.1-.3 0-.1.1-.2.2-.2h3.5c.1 0 .2.1.3.1l.1.1 1.3 2.6 1.3-2.6c.1 0 .2-.1.2-.1.2-.1.5 0 .6.2l1.3 2.7L13 1.2v-.1c.1-.1.2-.2.3-.2h4.3c.1 0 .2 0 .3.1.1.1.1.2.1.3v1.2h1.3c.4.1.5.3.5.6z"/></svg>