<svg version="1.1" xmlns="http://www.w3.org/2000/svg" x="0" y="0" viewBox="0 0 170.1 22" xml:space="preserve"><path d="M18.5 1.1h4.8v20.1h-4.8z"/><path d="M4.8 17V1.1H0v20.1h15.6V17z"/><path d="M38 0c-6.1 0-11 4.9-11 11s4.9 11 11 11 11-4.9 11-11S44 0 38 0zm0 17.2c-3.4 0-6.2-2.8-6.2-6.3 0-3.4 2.8-6.2 6.3-6.2 3.4 0 6.2 2.8 6.2 6.3-.1 3.4-2.9 6.2-6.3 6.2z"/><path d="M70.7 1.1H66v12.1L57.4 1.1h-4.8v20.1h4.8V9.1l9.1 12.1h4.3V1.1z"/><path d="M84.4 9.2c-1.8-.6-4.5-1.1-4.5-3 0-1 1.2-1.4 2.8-1.4 2.4 0 4.7.7 6.8 1.9l.1.1V2.2C87.4 1.4 85.1 1 82.8.8h-.6c-3.7 0-7.6 1.3-7.6 5.7 0 3.4 3.2 6 6 6.7 2.8 1 4.2 1.1 4.2 3 0 .9-.9 1.3-2.2 1.3-2.7-.2-5.3-1-7.5-2.5H75v4.4c2.2 1.2 4.7 1.9 7.2 2.1h.4c3.8 0 7.7-1.8 7.7-5.8 0-4.4-3.1-5.8-5.9-6.5z"/><path d="M114.2 9.9l-10.8-.1V14h5.9c-1.7 3-5.5 4.2-8.5 2.5-3-1.7-4.2-5.5-2.5-8.5 1.7-3 5.5-4.2 8.5-2.5 1.1.6 1.9 1.4 2.5 2.5v.1l3.8-2.9c-3.2-5.2-10-6.8-15.1-3.6-5.2 3.2-6.8 10-3.6 15.1 2 3.3 5.6 5.3 9.5 5.2 6.1 0 10.4-4.9 10.4-11 0-.3-.1-.6-.1-1z"/><path d="M127.6 1.1h-4.8L114.3 21h4.8l1.8-4.1h8.6l1.8 4.1h4.8l-8.5-19.9zm-4.9 11.6l2.5-5.9 2.5 5.9h-5z"/><path d="M151.3 1h-17.5v4.2h6.3v15.9h4.9V5.2h6.3V1z"/><path d="M168.5 16.8h-9.6v-3.7h9.2V8.9h-9.2V5.2h9.6l1.6-4.2h-16v20.1h16z"/></svg>