<svg version="1.1" xmlns="http://www.w3.org/2000/svg" xmlns:xlink="http://www.w3.org/1999/xlink" x="0" y="0" viewBox="0 0 284 47.6" xml:space="preserve"><defs><path id="a" d="M0 1.2h6.2c2.2 0 4.3.1 6.5.4 2.2.3 4.1.8 5.8 1.7 1.7.9 3.1 2.1 4.2 3.7s1.6 3.9 1.6 6.7c0 3.3-1 6-3 8.1-2 2-4.8 3.4-8.3 3.9l12.9 20.9h-6.6L6.9 26.1H0v-5h4.8c1.5 0 3 0 4.6-.1 1.6-.1 3.1-.4 4.4-.8 1.3-.5 2.5-1.2 3.3-2.2.9-1 1.3-2.4 1.3-4.3 0-1.6-.3-2.9-1-3.9-.6-1-1.5-1.7-2.5-2.3-1-.5-2.2-.9-3.5-1.1-1.3-.2-2.6-.3-3.9-.3H0V1.2z"/></defs><clipPath id="b"><use xlink:href="#a" overflow="visible"/></clipPath><path clip-path="url(#b)" fill="none" stroke="#DB5279" stroke-width="6" stroke-miterlimit="10" d="M-.1 3.6h8.9c4.9 0 12.6 1.6 12.6 9.8 0 5.9-3.2 10.2-16.9 10.2H-.1h8.9l14.9 24.5"/><defs><path id="c" d="M88.6 21.1h21.1v5H88.6v-5zm0-19.9h22.7v5H88.6v-5z"/></defs><clipPath id="d"><use xlink:href="#c" overflow="visible"/></clipPath><path clip-path="url(#d)" fill="none" stroke="#DB5279" stroke-width="6" stroke-miterlimit="10" d="M88.3 3.6h20.2v2.8L84.9 18.9v4.7h25"/><defs><path id="e" d="M129.9 21.1h4.8c1.5 0 3 0 4.6-.1 1.6-.1 3.1-.4 4.4-.8 1.3-.5 2.5-1.2 3.3-2.2.9-1 1.3-2.4 1.3-4.3 0-1.6-.3-2.9-1-3.9-.6-1-1.5-1.7-2.5-2.3-1-.5-2.2-.9-3.5-1.1-1.3-.2-2.6-.3-3.9-.3h-7.6v-5h6.2c2.2 0 4.3.1 6.5.4 2.2.3 4.1.8 5.8 1.7 1.7.9 3.1 2.1 4.2 3.7s1.6 3.9 1.6 6.7c0 3.3-1 6-3 8.1-2 2-4.8 3.4-8.3 3.9l12.9 20.9h-6.6l-12.3-20.4h-6.9v-5z"/></defs><clipPath id="f"><use xlink:href="#e" overflow="visible"/></clipPath><path clip-path="url(#f)" fill="none" stroke="#DB5279" stroke-width="6" stroke-miterlimit="10" d="M129.8 3.6h8.9c4.9 0 12.6 1.6 12.6 9.8 0 5.9-3.2 10.2-16.9 10.2h-4.6 8.9l14.9 24.5"/><defs><path id="g" d="M234.6 9.2c-.9-1.5-2.1-2.5-3.6-3.2-1.5-.7-3.1-1-4.7-1-1.2 0-2.4.2-3.5.4-1.2.3-2.2.7-3.1 1.3-.9.6-1.7 1.4-2.2 2.4-.6 1-.8 2.1-.8 3.5 0 1 .2 1.9.5 2.7.3.8.8 1.5 1.6 2.1s1.7 1.2 2.9 1.8c1.2.6 2.8 1.1 4.5 1.7l5.1 1.8c1.7.6 3.1 1.5 4.4 2.4 1.3 1 2.3 2.2 3 3.7.7 1.5 1.1 3.3 1.1 5.5 0 2.3-.4 4.2-1.3 5.9-.9 1.7-2.1 3-3.6 4.1-1.5 1.1-3.2 1.9-5.1 2.4s-3.9.8-6 .8c-1.3 0-2.6-.1-4-.4-1.3-.2-2.6-.6-3.8-1.1-1.2-.5-2.4-1.1-3.4-1.9-1.1-.8-2-1.8-2.8-2.9l4.6-3.8c1 1.7 2.3 2.9 4.1 3.8 1.7.9 3.6 1.3 5.6 1.3 1.2 0 2.3-.2 3.5-.5 1.2-.3 2.2-.8 3.2-1.5.9-.7 1.7-1.5 2.3-2.5.6-1 .9-2.1.9-3.4 0-1.4-.2-2.5-.7-3.4-.5-.9-1.2-1.6-2.2-2.3s-2.2-1.2-3.7-1.7-3.2-1.1-5.2-1.8c-1.6-.5-3.1-1.1-4.5-1.8s-2.5-1.5-3.6-2.4c-1-1-1.8-2.1-2.4-3.5s-.9-3-.9-4.8c0-2.2.4-4.1 1.3-5.7.9-1.6 2-3 3.5-4.1 1.4-1.1 3.1-1.9 4.9-2.5 1.8-.6 3.8-.8 5.8-.8 2.6 0 4.9.4 7 1.2 2.1.8 4 2.2 5.7 4.1l-4.4 4.1z"/></defs><clipPath id="h"><use xlink:href="#g" overflow="visible"/></clipPath><path clip-path="url(#h)" fill="none" stroke="#DB5279" stroke-width="6" stroke-miterlimit="10" d="M237.5 8.2s-2.4-5.8-12-5.8c-7.8 0-11.6 4.8-11.6 10.5 0 3.9.9 7.7 11.2 10.7 4 1.2 11.8 2.8 11.8 10.8 0 6.1-4.5 10.8-12 10.8-10.3 0-13.2-6.6-13.2-6.6"/><defs><path id="i" d="M259.8 20.4H284v5h-24.2v-5z"/></defs><clipPath id="j"><use xlink:href="#i" overflow="visible"/></clipPath><path clip-path="url(#j)" fill="none" stroke="#DB5279" stroke-width="6" stroke-miterlimit="10" d="M259.7 22.8h24.5"/></svg>