<svg version="1.1" xmlns="http://www.w3.org/2000/svg" xmlns:xlink="http://www.w3.org/1999/xlink" x="0" y="0" viewBox="0 0 294.8 47.7" xml:space="preserve"><style type="text/css">.st1{clip-path:url(#SVGID_2_)}.st1,.st2,.st3,.st4,.st5{fill:none;stroke-width:6;stroke-miterlimit:10}.st2{clip-path:url(#SVGID_4_)}.st3{clip-path:url(#SVGID_6_)}.st4{clip-path:url(#SVGID_8_)}.st5{clip-path:url(#SVGID_10_)}</style><g class="logo-lines"><path d="M5.4 46.7H0V1.4h5.4v45.3z"/><path d="M45.9 15.6h26.9v5H45.9v-5z"/><path d="M45.9 29.6h26.9v5H45.9v-5z"/><path d="M88.6 1.4H94v45.3h-5.4V1.4z"/><path d="M135.3 46.7h-5.4V1.4h5.4v45.3z"/><path d="M175.8 15.6h26.9v5h-26.9v-5z"/><path d="M175.8 29.6h26.9v5h-26.9v-5z"/><path d="M265.2 46.7h-5.4V1.4h5.4v45.3zm24.2-45.3h5.4v45.3h-5.4V1.4z"/></g><g class="draw-paths"><defs><path id="SVGID_1_" d="M5.4 1.4h6.2c2.2 0 4.3.1 6.5.4s4.1.8 5.8 1.7 3.1 2.1 4.2 3.7 1.6 3.9 1.6 6.7c0 3.3-1 6-3 8.1-2 2-4.8 3.4-8.3 3.9l12.9 20.9h-6.6L12.3 26.3H5.4v-5h4.8c1.5 0 3 0 4.6-.1 1.6-.1 3.1-.4 4.4-.8 1.3-.5 2.5-1.2 3.3-2.2.9-1 1.3-2.4 1.3-4.3 0-1.6-.3-2.9-1-3.9-.6-1-1.5-1.7-2.5-2.3-1-.5-2.2-.9-3.5-1.1-1.3-.2-2.6-.3-3.9-.3H5.4V1.4z"/></defs><clipPath id="SVGID_2_"><use xlink:href="#SVGID_1_" overflow="visible"/></clipPath><path id="r-stroke" class="st1" d="M5.3 3.8h8.9c4.9 0 12.6 1.6 12.6 9.8 0 5.9-3.2 10.2-16.9 10.2H5.3h8.9l14.9 24.5"/><defs><path id="SVGID_3_" d="M94 21.3h21.1v5H94v-5zm0-19.9h22.7v5H94v-5z"/></defs><clipPath id="SVGID_4_"><use xlink:href="#SVGID_3_" overflow="visible"/></clipPath><path id="f-stroke" class="st2" d="M93.7 3.8h20.2v2.8L90.3 19.1v4.7h25"/><defs><path id="SVGID_5_" d="M135.3 1.4h6.2c2.2 0 4.3.1 6.5.4s4.1.8 5.8 1.7 3.1 2.1 4.2 3.7 1.6 3.9 1.6 6.7c0 3.3-1 6-3 8.1-2 2-4.8 3.4-8.3 3.9l12.9 20.9h-6.6l-12.4-20.5h-6.9v-5h4.8c1.5 0 3 0 4.6-.1 1.6-.1 3.1-.4 4.4-.8 1.3-.5 2.5-1.2 3.3-2.2.9-1 1.3-2.4 1.3-4.3 0-1.6-.3-2.9-1-3.9-.6-1-1.5-1.7-2.5-2.3-1-.5-2.2-.9-3.5-1.1s-2.6-.3-3.9-.3h-7.5V1.4z"/></defs><clipPath id="SVGID_6_"><use xlink:href="#SVGID_5_" overflow="visible"/></clipPath><path id="r-stroke_1_" class="st3" d="M135.2 3.8h8.9c4.9 0 12.6 1.6 12.6 9.8 0 5.9-3.2 10.2-16.9 10.2h-4.6 8.9L159 48.3"/><defs><path id="SVGID_7_" d="M240 9.4c-.9-1.5-2.1-2.5-3.6-3.2s-3.1-1-4.7-1c-1.2 0-2.4.2-3.5.4-1.2.3-2.2.7-3.1 1.3s-1.7 1.4-2.2 2.4c-.6 1-.8 2.1-.8 3.5 0 1 .2 1.9.5 2.7.3.8.8 1.5 1.6 2.1.8.6 1.7 1.2 2.9 1.8 1.2.6 2.8 1.1 4.5 1.7l5.1 1.8c1.7.6 3.1 1.5 4.4 2.4 1.3 1 2.3 2.2 3 3.7.7 1.5 1.1 3.3 1.1 5.5 0 2.3-.4 4.2-1.3 5.9-.9 1.7-2.1 3-3.6 4.1s-3.2 1.9-5.1 2.4c-1.9.5-3.9.8-6 .8-1.3 0-2.6-.1-4-.4-1.3-.2-2.6-.6-3.8-1.1-1.2-.5-2.4-1.1-3.4-1.9-1.1-.8-2-1.8-2.8-2.9l4.6-3.8c1 1.7 2.3 2.9 4.1 3.8 1.7.9 3.6 1.3 5.6 1.3 1.2 0 2.3-.2 3.5-.5 1.2-.3 2.2-.8 3.2-1.5.9-.7 1.7-1.5 2.3-2.5s.9-2.1.9-3.4c0-1.4-.2-2.5-.7-3.4-.5-.9-1.2-1.6-2.2-2.3s-2.2-1.2-3.7-1.7-3.2-1.1-5.2-1.8c-1.6-.5-3.1-1.1-4.5-1.8s-2.5-1.5-3.6-2.4c-1-1-1.8-2.1-2.4-3.5-.6-1.4-.9-3-.9-4.8 0-2.2.4-4.1 1.3-5.7.9-1.6 2-3 3.5-4.1 1.4-1.1 3.1-1.9 4.9-2.5s3.8-.8 5.8-.8c2.6 0 4.9.4 7 1.2s4 2.2 5.7 4.1L240 9.4z"/></defs><clipPath id="SVGID_8_"><use xlink:href="#SVGID_7_" overflow="visible"/></clipPath><path id="s-stroke" class="st4" d="M242.9 8.4s-2.4-5.8-12-5.8c-7.8 0-11.6 4.8-11.6 10.5 0 3.9.9 7.7 11.2 10.7 4 1.2 11.8 2.8 11.8 10.8 0 6.1-4.5 10.8-12 10.8-10.3 0-13.2-6.6-13.2-6.6"/><defs><path id="SVGID_9_" d="M265.2 20.6h24.2v5h-24.2z"/></defs><clipPath id="SVGID_10_"><use xlink:href="#SVGID_9_" overflow="visible"/></clipPath><path id="h-stroke" class="st5" d="M265.1 23h24.5"/></g></svg>