<svg version="1.1" xmlns="http://www.w3.org/2000/svg" x="0" y="0" viewBox="0 0 294.8 47.6" xml:space="preserve"><g fill="#231F20"><path d="M0 1.2h11.6c2.2 0 4.3.1 6.5.4 2.2.3 4.1.8 5.8 1.7 1.7.8 3.1 2 4.1 3.6 1.1 1.6 1.6 3.9 1.6 6.7 0 3.3-1 6-3 8.1-2 2-4.8 3.4-8.3 3.9l12.9 20.9h-6.6L12.3 26.1H5.4v20.4H0V1.2zm5.4 19.9h4.8c1.5 0 3 0 4.6-.1 1.6-.1 3.1-.4 4.4-.8 1.3-.5 2.5-1.2 3.3-2.2.9-1 1.3-2.4 1.3-4.3 0-1.6-.3-2.9-1-3.9-.6-1-1.5-1.7-2.5-2.3-1-.5-2.2-.9-3.5-1.1-1.3-.2-2.6-.3-3.9-.3H5.4v15z"/><path d="M45.9 15.4h26.9v5H45.9v-5z"/><path d="M45.9 29.4h26.9v5H45.9v-5z"/><path d="M88.6 1.2h28.1v5H94v15h21.1v5H94v20.4h-5.4V1.2z"/><path d="M129.9 1.2h11.6c2.2 0 4.3.1 6.5.4 2.2.3 4.1.8 5.8 1.7 1.7.9 3.1 2.1 4.2 3.7s1.6 3.9 1.6 6.7c0 3.3-1 6-3 8.1-2 2-4.8 3.4-8.3 3.9l12.9 20.9h-6.6l-12.3-20.4h-6.9v20.4H130V1.2zm5.4 19.9h4.8c1.5 0 3 0 4.6-.1 1.6-.1 3.1-.4 4.4-.8 1.3-.5 2.5-1.2 3.3-2.2.9-1 1.3-2.4 1.3-4.3 0-1.6-.3-2.9-1-3.9-.6-1-1.5-1.7-2.5-2.3-1-.5-2.2-.9-3.5-1.1-1.3-.2-2.6-.3-3.9-.3h-7.6v15z"/><path d="M175.8 15.4h26.9v5h-26.9v-5z"/><path d="M175.8 29.4h26.9v5h-26.9v-5z"/><path d="M240 9.2c-.9-1.5-2.1-2.5-3.6-3.2-1.5-.7-3.1-1-4.7-1-1.2 0-2.4.2-3.5.4-1.2.3-2.2.7-3.1 1.3-.9.6-1.7 1.4-2.2 2.4-.6 1-.8 2.1-.8 3.5 0 1 .2 1.9.5 2.7.3.8.8 1.5 1.6 2.1s1.7 1.2 2.9 1.8c1.2.6 2.8 1.1 4.5 1.7l5.1 1.8c1.7.6 3.1 1.5 4.4 2.4 1.3 1 2.3 2.2 3 3.7.7 1.5 1.1 3.3 1.1 5.5 0 2.3-.4 4.2-1.3 5.9-.9 1.7-2.1 3-3.6 4.1-1.5 1.1-3.2 1.9-5.1 2.4s-3.9.8-6 .8c-1.3 0-2.6-.1-4-.4-1.3-.2-2.6-.6-3.8-1.1-1.2-.5-2.4-1.1-3.4-1.9-1.1-.8-2-1.8-2.8-2.9l4.6-3.8c1 1.7 2.3 2.9 4.1 3.8 1.7.9 3.6 1.3 5.6 1.3 1.2 0 2.3-.2 3.5-.5 1.2-.3 2.2-.8 3.2-1.5.9-.7 1.7-1.5 2.3-2.5.6-1 .9-2.1.9-3.4 0-1.4-.2-2.5-.7-3.4-.5-.9-1.2-1.6-2.2-2.3s-2.2-1.2-3.7-1.7-3.2-1.1-5.2-1.8c-1.6-.5-3.1-1.1-4.5-1.8s-2.5-1.5-3.6-2.4c-1-1-1.8-2.1-2.4-3.5s-.9-3-.9-4.8c0-2.2.4-4.1 1.3-5.7.9-1.6 2-3 3.5-4.1 1.4-1.1 3.1-1.9 4.9-2.5 1.8-.6 3.8-.8 5.8-.8 2.6 0 4.9.4 7 1.2 2.1.8 4 2.2 5.7 4.1L240 9.2z"/><path d="M259.8 1.2h5.4v19.2h24.2V1.2h5.4v45.3h-5.4V25.3h-24.2v21.1h-5.4V1.2z"/></g></svg>