<svg version="1.1" xmlns="http://www.w3.org/2000/svg" x="0" y="0" viewBox="0 0 64.5 51.6" xml:space="preserve"><path d="M42.4 3.7c5.1 0 9.2 21.4 9.2 47.9H59C59 23.1 51.5 0 42.4 0c-5.2 0-9.9 6.9-12.9 17.8C26.5 6.9 21.8 0 16.6 0 7.4 0 0 23.1 0 51.6h7.4c0-26.5 4.1-47.9 9.2-47.9s9.2 19.8 9.2 44.2h7.4c0-24.4 4.1-44.2 9.2-44.2z"/><path d="M62.7 47.9c1 0 1.8.8 1.8 1.9s-.8 1.8-1.9 1.8c-1 0-1.8-.8-1.8-1.8 0-1.1.8-1.9 1.9-1.9-.1 0-.1 0 0 0zm0 3.4c.9 0 1.6-.6 1.6-1.5s-.6-1.6-1.5-1.6-1.6.6-1.6 1.5c-.1.9.5 1.6 1.5 1.6-.1 0-.1 0 0 0zm-.8-2.6h.8c.3-.1.6.1.7.4v.2c0 .3-.2.6-.5.6h-.1l.6 1H63l-.6-.9H62v.9h-.3l.2-2.2zm.4 1h.4c.3 0 .6 0 .6-.4s-.4-.3-.6-.3h-.4v.7z"/></svg>