<svg version="1.1" xmlns="http://www.w3.org/2000/svg" x="0" y="0" viewBox="0 0 143.6 37.3" xml:space="preserve"><path d="M82.4 17.1V24c0 1.3.3 1.6 1.6 1.6.4 0 .8 0 1.2-.1v3c-.7.1-1.5.1-2.2.1-2.3 0-4.4-.5-4.4-3.3v-8.2h-2.3v-2.6h2.3v-.6c0-2.8.8-3.5 3.8-3.5v4.1h2.8v2.6h-2.8z"/><path d="M65.2 19.9c0-1.7 1.3-3 3-3h.2c2 0 2.7 1.1 3.1 3h-6.3zm3.3-5.8c-4.4 0-7.1 3.4-7.1 7.4 0 3.5 2 7.3 7.1 7.3 4.7 0 6-3 6.6-4.7h-2.4c-.5 0-1 .3-1.3.7-.7.7-1.6 1.2-2.6 1.1-3.3 0-3.4-2.6-3.4-3.5h10.1c0-4.1-2.1-8.3-7-8.3"/><path d="M59.5 28.5h-2.4c-1.1.2-2.1-.3-2.7-1.3l-7.3-11.8H47v13.1h-4V8.9h2.4c1.8 0 2.2.6 2.9 1.7L55.5 22h.1V8.9h.2c3.6 0 3.8 1.2 3.8 3.4l-.1 16.2z"/><path d="M113.3 17c-2.6 0-3.4 2.2-3.4 4.5s.9 4.4 3.4 4.4 3.4-2 3.4-4.4-.8-4.5-3.4-4.5m7.2 4.5c0 4.6-3 7.3-7.2 7.3s-7.2-2.7-7.2-7.3 3-7.3 7.2-7.3 7.2 2.7 7.2 7.3"/><path d="M142.6 15.8c-.8-1-2-1.5-3.3-1.4-.9 0-1.8.2-2.6.5-.7.3-1.3.8-1.8 1.4l-.1.1s-.1.2-.3.4c-.1-.4-.3-.8-.6-1.1-.8-1-2-1.5-3.3-1.4-.9 0-1.8.2-2.6.5-.7.3-1.3.8-1.8 1.4l-.1.1v-1.6h-3.6v13.6h3.7v-8.5c.1-.7.3-1.3.7-1.9.5-.6 1.2-1 2-1 .7 0 1.3.3 1.7.8.4.8.6 1.7.6 2.6v7.8h3.7v-8.3c.1-.7.3-1.3.7-1.9.5-.6 1.2-1 2-1 .7 0 1.3.3 1.7.8.4.8.6 1.7.6 2.6v7.8h3.7v-8.6c.1-1.1-.2-2.5-1-3.7"/><path d="M96.2 12.1c-5.6 0-5.3 6.6-5.3 6.6s-.3 6.4 5.3 6.5c2 .1 3.8-1.3 4.2-3.3.2-.7.8-1.1 1.5-1h2.9c-.2 4.5-4 8-8.5 7.9-9.9-.3-9.5-10-9.5-10s-.4-10 9.5-10.2c0 0 7.4-.3 8.4 7h-3c-.7.1-1.3-.3-1.5-1-.8-1.4-2.3-2.4-3.9-2.3"/><path d="M28.9 16.1c-7.2 6.1-18.2 11.7-25.4 9.8.1.2.1.2.3.4l.1.2C11 38 30.8 29.3 33.1 22c.5-2.5-1.2-4.4-4.2-5.9M8.6 32.4l1 1c1.5 1.4 3.3 2.6 5.2 3.3 1 .4 2 .6 3.1.6.8 0 1.6-.1 2.3-.4 2.2-.7 4.2-1.9 5.8-3.5l1.2-1.2c1.8-1.9 3.3-4.1 4.6-6.4-4.2 5.1-15.4 10-23.2 6.6m6.3-22c4.6.7 9.1 1.6 13.6 2.9 3.7-2.8 6.2-5.8 6.4-8.3-.1-.2-.1-.3-.2-.5-.2-.4-.4-.7-.6-1.1-.1-.2-.3-.4-.5-.7-4.7 6-11.4 8-18.7 7.7m20.8-2.2c-1.2 2.3-2.8 4.4-4.8 6.2 1.6.7 3 1.8 4.1 3.2.3-1.3.6-2.7.7-4 .2-1.9.2-3.7 0-5.4m-9.4 6.7c-6.8-2.5-17-3.8-23.6-5.3C1.6 10.9.8 12.4.4 14c-.3 1.1-.4 2.2-.4 3.3.1 1.3.5 2.5 1 3.6 3 4.7 16.3.1 25.3-6M33 2.2C31.3.9 29.3.2 27.2.1 22-.4 15 1.2 9.4 4.3c-1.8 1-3.5 2.2-5 3.6.9.2 1.7.4 2.6.6 11.1 2 20.5.4 26-6.3"/></svg>