<svg version="1.1" xmlns="http://www.w3.org/2000/svg" x="0" y="0" viewBox="0 0 139.5 10.8" xml:space="preserve"><path d="M2.4 1.8l4.8 8.7h5.5l4.7-8.7h2.4V.2h-7.1v1.6h2l-3.4 6.4-3.5-6.4h2.5V.2H0v1.6z"/><path d="M63.5 1.8V.2H73v1.6h-2.4v7.1h2.2c1.8.1 3.3-1.1 3.4-2.9v-.3h1.6v4.8H63.5V8.9h2.4V1.8h-2.4z"/><path d="M40.4 0c-4.8 0-7.3 2.4-7.3 5.4s2.4 5.5 7.3 5.5 7.3-2.4 7.3-5.4S45.2 0 40.4 0zm0 9.2c-1.8 0-2.5-2-2.5-3.9s1-3.7 2.6-3.7S43 3.4 43 5.4s-.8 3.8-2.6 3.8z"/><path d="M94 1.8l4.8 8.7h5.6l4.7-8.7h2.4V.2h-7.1v1.6h2L103 8.2l-3.5-6.4h2.5V.2H91.7v1.6z"/><path d="M132.1 0c-4.8 0-7.3 2.4-7.3 5.4s2.4 5.5 7.3 5.5 7.3-2.4 7.3-5.4-2.5-5.5-7.3-5.5zm0 9.2c-1.8 0-2.5-2-2.5-3.9s1-3.7 2.6-3.7 2.5 1.8 2.5 3.8-.8 3.8-2.6 3.8z"/></svg>